<?xml version="1.0" standalone="no"?>
<!DOCTYPE svg PUBLIC "-//W3C//DTD SVG 20010904//EN"
 "http://www.w3.org/TR/2001/REC-SVG-20010904/DTD/svg10.dtd">
<svg version="1.0" xmlns="http://www.w3.org/2000/svg"
 width="2000.000000pt" height="2000.000000pt" viewBox="0 0 2000.000000 2000.000000"
 preserveAspectRatio="xMidYMid meet">

<g transform="translate(0.000000,2000.000000) scale(0.100000,-0.100000)"
fill="#000000" stroke="none">
<path d="M0 10000 l0 -10000 10000 0 10000 0 0 10000 0 10000 -10000 0 -10000
0 0 -10000z m19990 0 l0 -9990 -9990 0 -9990 0 0 9990 0 9990 9990 0 9990 0 0
-9990z"/>
<path d="M11015 13900 c-692 -17 -1243 -57 -1515 -111 -174 -35 -374 -106
-430 -154 -8 -7 -97 -49 -198 -94 -456 -202 -1285 -605 -1852 -901 l-265 -139
-445 -10 c-1186 -29 -1629 -44 -1830 -62 -174 -16 -333 -46 -413 -78 -103 -41
-141 -45 -447 -46 -260 -1 -282 -3 -404 -29 -601 -129 -1707 -536 -1827 -673
-72 -83 -7 -123 103 -63 48 26 73 32 165 40 166 13 583 23 583 13 0 -4 -105
-113 -233 -240 -215 -216 -237 -235 -307 -267 -109 -50 -378 -146 -427 -153
-43 -6 -43 -5 -63 38 -11 24 -20 61 -20 82 0 35 5 41 70 88 117 86 87 74 -73
-28 -77 -49 -79 -55 -49 -163 16 -56 17 -82 10 -195 -7 -89 -6 -171 3 -260 13
-151 9 -191 -52 -515 -47 -246 -44 -235 -72 -248 -20 -10 -18 -11 18 -11 35
-1 42 3 58 31 10 17 52 162 93 322 84 330 101 384 121 408 18 20 111 59 209
87 39 11 79 29 88 40 10 11 38 28 62 37 25 9 43 18 42 20 -2 1 -79 -8 -172
-21 l-169 -24 -40 -38 c-22 -21 -60 -69 -84 -106 -25 -38 -46 -67 -48 -65 -7
8 40 414 49 420 24 16 465 158 491 158 40 0 80 -26 181 -116 106 -94 190 -149
254 -165 35 -9 50 -18 50 -30 0 -38 -285 -396 -475 -597 -98 -104 -123 -120
-280 -173 -76 -26 -129 -51 -173 -84 -35 -25 -62 -48 -60 -50 2 -2 42 10 88
26 47 17 121 39 164 49 43 11 97 31 120 46 111 74 542 551 662 735 95 145 106
156 124 134 11 -13 10 -22 -3 -50 -9 -19 -15 -35 -13 -35 2 0 90 104 195 230
106 127 193 230 195 230 1 0 -25 -55 -59 -122 -53 -107 -119 -269 -140 -348
-4 -14 16 11 43 55 164 260 405 477 692 624 439 223 936 259 1397 100 418
-144 768 -435 977 -809 20 -36 36 -60 36 -53 0 33 -43 228 -64 289 -13 38 -45
114 -72 169 -60 126 -67 178 -29 223 36 43 92 75 216 121 339 128 928 170
4329 311 1734 71 1759 72 2385 73 852 0 1347 -33 1675 -114 96 -24 208 -71
215 -91 3 -7 -20 -40 -51 -73 -214 -228 -355 -500 -428 -827 -14 -64 -26 -119
-26 -124 1 -5 16 30 34 78 221 577 701 984 1315 1115 115 25 145 27 351 27
174 1 246 -3 317 -17 274 -52 517 -155 743 -315 115 -81 294 -257 379 -372 70
-95 71 -89 15 68 -39 112 -67 160 -148 260 -87 108 -105 136 -112 171 -16 80
62 121 355 185 259 58 1144 216 1205 216 13 0 35 -9 49 -20 14 -11 145 -74
291 -139 145 -65 285 -130 309 -144 43 -26 45 -29 52 -84 5 -51 0 -191 -20
-553 -3 -52 -7 -150 -9 -217 -5 -147 -14 -168 -96 -223 -67 -45 -117 -103
-283 -323 l-112 -148 -80 -25 c-44 -14 -165 -43 -270 -64 -104 -21 -180 -39
-169 -39 32 -1 438 57 483 69 58 15 96 52 166 160 35 54 87 118 121 149 64 58
212 164 348 251 57 36 89 63 93 78 3 13 0 64 -7 115 -11 80 -10 141 9 454 15
246 19 368 12 380 -14 25 -164 171 -234 227 -34 27 -68 46 -83 46 -13 0 -52
-14 -85 -31 -47 -23 -68 -29 -92 -24 -81 18 -248 78 -289 105 -61 41 -270 257
-287 297 -7 18 -11 39 -8 47 15 38 127 81 317 121 69 15 175 37 237 51 61 13
119 21 127 18 9 -3 19 -18 22 -33 12 -55 17 -55 31 -1 16 67 12 165 -8 185
-30 30 -120 36 -629 44 -598 9 -587 8 -1040 121 -418 105 -583 154 -1167 349
-978 326 -1499 463 -2228 585 -734 123 -1761 181 -2780 156z m1240 -250 c432
-26 787 -62 1075 -106 273 -42 346 -60 429 -105 374 -201 491 -284 491 -347 0
-24 -6 -35 -28 -46 -59 -30 -974 -298 -1354 -395 -319 -82 -375 -90 -693 -101
-548 -19 -3549 -83 -3637 -78 -90 5 -60 26 47 34 52 4 107 14 130 24 36 17
100 19 665 29 801 15 1837 37 2530 56 654 17 610 10 1355 217 494 136 758 223
791 259 17 19 16 21 -32 65 -63 59 -220 164 -305 203 -84 40 -346 106 -519
131 -437 63 -938 97 -1590 106 -1036 16 -1762 -58 -2190 -221 -118 -45 -411
-187 -631 -306 -147 -79 -172 -89 -217 -89 -28 0 -53 4 -56 8 -11 19 662 367
862 446 333 131 759 197 1492 230 156 7 1222 -3 1385 -14z m40 -110 c104 -6
190 -12 191 -13 4 -4 -101 -866 -106 -870 -3 -3 -304 -10 -670 -16 -1224 -21
-1761 -32 -2310 -46 -300 -8 -566 -15 -591 -15 l-46 0 5 93 c4 86 2 98 -27
172 -18 44 -39 90 -47 102 -13 21 -11 24 54 61 312 182 705 363 912 420 195
54 635 99 1200 122 260 11 1185 4 1435 -10z m480 -45 l170 -24 -180 5 c-102 3
-186 1 -193 -4 -9 -6 -25 -81 -43 -200 -38 -248 -79 -575 -74 -581 3 -2 91 10
197 28 106 17 198 31 203 30 17 -2 -124 -37 -278 -70 -82 -17 -151 -28 -154
-25 -5 5 91 801 104 852 4 19 10 21 41 17 20 -3 114 -15 207 -28z m1141 -6
c186 -25 245 -42 329 -91 160 -94 395 -262 395 -282 0 -12 -32 -46 -56 -59
-20 -11 -456 -138 -460 -134 -2 2 71 27 163 56 167 53 259 88 252 95 -7 7
-253 -24 -279 -35 l-25 -11 23 24 c37 41 29 75 -31 132 -79 76 -416 277 -531
318 l-51 18 65 -6 c36 -3 128 -14 206 -25z m-5283 -535 c10 -3 27 -25 39 -48
24 -47 70 -178 64 -183 -2 -2 -20 19 -40 47 -20 28 -43 53 -52 57 -17 6 -67
-26 -139 -91 l-50 -45 143 -1 c143 0 187 -12 90 -24 -29 -3 -169 -9 -310 -12
-241 -7 -258 -6 -264 11 -11 26 20 76 103 165 96 103 123 121 192 131 60 8
196 4 224 -7z m-508 -206 c-15 -24 -29 -50 -32 -59 -2 -9 -53 -44 -113 -78
-106 -60 -111 -62 -172 -59 l-63 3 200 117 c110 64 201 117 203 118 2 0 -9
-19 -23 -42z m8355 12 c256 -11 446 -27 785 -66 456 -52 607 -65 850 -70 138
-3 298 -2 357 3 59 5 104 6 100 2 -8 -7 -684 -189 -703 -189 -6 0 -50 15 -98
34 -340 136 -992 204 -1698 177 -795 -30 -1935 -156 -2718 -301 -116 -22 -239
-46 -275 -54 -72 -17 -95 -14 -29 4 110 30 531 125 755 170 791 161 1654 276
2194 293 205 7 258 6 480 -3z m-7747 -132 c-16 -73 -24 -87 -56 -94 -43 -10
-424 -7 -443 4 -10 6 30 11 107 15 75 4 126 12 130 19 4 6 56 17 116 24 87 11
111 17 123 33 20 27 29 26 23 -1z m-403 -10 c102 -1 214 1 250 5 39 4 57 4 45
-2 -11 -4 -47 -11 -80 -15 -33 -4 -76 -11 -95 -16 -19 -5 -102 -14 -183 -20
-82 -5 -158 -15 -170 -21 -12 -7 -73 -52 -134 -102 -111 -90 -122 -106 -67
-107 12 0 70 38 130 86 l109 85 59 -5 c32 -3 107 -6 165 -6 l106 -1 -85 -80
c-131 -124 -154 -136 -264 -144 -55 -4 -121 -3 -164 4 -70 11 -177 45 -186 60
-3 4 26 31 65 60 38 29 69 54 69 55 0 1 -62 0 -137 -2 -198 -6 -201 -5 -128
38 l60 35 154 5 c139 4 154 7 157 23 6 41 68 80 114 72 14 -3 108 -6 210 -7z
m-895 -274 c-22 -2 -357 -8 -745 -14 -1729 -26 -2509 -83 -3325 -245 -419 -83
-714 -165 -1135 -313 -70 -25 -111 -32 -235 -41 -302 -21 -370 -23 -360 -13 6
6 90 40 189 77 441 163 930 283 1491 364 616 89 1476 156 2330 180 248 7 1882
11 1790 5z m4602 -176 c14 -15 9 -17 -53 -23 -124 -11 -102 -13 106 -8 221 6
274 -1 310 -39 22 -24 27 -73 8 -84 -6 -4 -145 -8 -307 -9 -165 0 -364 -7
-449 -15 -170 -16 -184 -12 -166 37 8 24 21 31 84 50 41 12 89 23 105 24 18 1
23 3 13 6 -22 6 -23 17 -2 37 41 42 314 60 351 24z m391 -173 c-15 -34 -61
-45 -194 -45 -110 0 -110 0 -140 -31 -47 -50 -71 -57 -217 -65 -118 -6 -140
-5 -162 10 -30 20 -35 42 -6 26 25 -13 255 -13 300 0 39 11 57 32 66 78 5 28
9 32 28 26 12 -4 25 -11 28 -16 4 -6 60 -8 132 -6 115 3 128 5 149 26 28 28
30 28 16 -3z"/>
<path d="M11818 12123 c12 -2 32 -2 45 0 12 2 2 4 -23 4 -25 0 -35 -2 -22 -4z"/>
<path d="M11728 12113 c12 -2 30 -2 40 0 9 3 -1 5 -23 4 -22 0 -30 -2 -17 -4z"/>
<path d="M14080 13893 c-152 -14 -410 -66 -410 -82 0 -4 130 -32 289 -62 l288
-55 -19 27 -20 27 36 52 c41 60 44 75 17 90 -19 9 -102 11 -181 3z"/>
<path d="M18555 13433 c-16 -2 -109 -13 -205 -24 -321 -37 -866 -118 -954
-140 l-39 -11 79 -80 c43 -44 105 -102 137 -129 l58 -49 352 1 c435 1 443 2
503 60 56 54 148 191 169 249 18 52 19 94 3 108 -17 13 -65 20 -103 15z m93
-58 c3 -24 -76 -159 -150 -257 -38 -50 -61 -71 -88 -79 -20 -6 -165 -12 -350
-14 -173 -2 -306 -2 -295 0 11 3 119 11 240 20 l220 16 58 58 58 57 -88 -3
c-48 -2 -171 -8 -273 -13 -198 -11 -276 -12 -269 -6 2 2 198 39 434 81 422 77
474 90 446 118 -5 5 -45 12 -88 16 -72 7 -75 8 -38 15 22 4 47 9 55 11 8 2 40
2 70 2 47 -2 55 -5 58 -22z"/>
<path d="M17536 13013 c4 -23 -7 -47 -65 -131 l-69 -102 26 -6 c15 -3 32 -7
39 -9 6 -2 39 39 72 92 35 53 70 97 81 100 25 7 26 23 2 23 -9 0 -34 14 -55
31 l-37 30 6 -28z"/>
<path d="M17747 12858 c-36 -68 -62 -126 -59 -130 4 -4 42 -10 84 -14 l78 -7
26 59 c15 33 41 94 60 137 l33 77 -79 0 -78 0 -65 -122z"/>
<path d="M18225 12853 c-44 -69 -81 -130 -83 -135 -2 -4 16 -8 40 -8 l43 0 80
127 c44 69 82 130 83 135 2 4 -16 8 -40 8 l-43 0 -80 -127z"/>
<path d="M18743 12435 l-51 -26 27 -28 c37 -39 51 -93 51 -189 0 -156 -28
-222 -103 -243 l-42 -12 50 -23 c60 -29 78 -29 133 -4 47 21 48 22 27 54 -15
23 -20 183 -12 398 3 95 -11 107 -80 73z"/>
<path d="M18525 12389 c-27 -5 -68 -7 -90 -4 -86 12 -245 -60 -245 -111 0 -41
17 -64 118 -162 119 -115 111 -108 158 -128 l39 -16 -53 56 c-65 69 -106 153
-97 197 14 63 83 118 200 160 55 19 47 21 -30 8z"/>
<path d="M18596 12344 c-25 -25 -34 -45 -46 -111 -21 -120 23 -253 84 -253 89
0 120 273 40 361 -21 23 -57 25 -78 3z"/>
<path d="M18470 12317 c-75 -39 -98 -112 -61 -193 20 -44 82 -119 112 -135 16
-8 16 -4 -4 38 -33 72 -31 190 4 261 23 45 24 52 9 52 -9 0 -36 -10 -60 -23z"/>
<path d="M1726 11534 c-148 -15 -164 -21 -192 -76 -21 -40 -18 -105 4 -117 21
-11 122 -50 122 -47 0 1 -11 17 -25 36 -27 36 -31 73 -15 131 l10 37 153 25
c170 28 151 31 -57 11z"/>
<path d="M1499 11517 c-39 -21 -45 -28 -51 -68 -3 -24 -7 -70 -7 -102 -1 -52
1 -57 17 -48 13 6 36 -2 94 -36 l78 -46 62 24 c64 23 197 83 166 75 -9 -3 -62
-19 -118 -37 -113 -36 -112 -36 -211 27 l-42 26 7 76 c5 64 10 80 33 104 33
34 29 35 -28 5z"/>
<path d="M1880 11506 c-91 -19 -129 -60 -114 -122 8 -32 53 -52 69 -31 5 8 29
24 53 36 38 19 42 25 42 58 0 20 7 45 17 55 19 21 14 22 -67 4z"/>
<path d="M1715 11488 c-27 -5 -56 -16 -62 -25 -20 -26 -16 -92 8 -129 23 -37
30 -39 78 -23 31 11 32 12 12 26 -17 11 -21 25 -21 69 0 51 2 56 33 74 35 22
28 23 -48 8z"/>
<path d="M1562 10520 c-190 -98 -195 -102 -216 -197 -16 -78 -66 -394 -66
-425 0 -14 12 -11 78 16 42 18 108 40 146 50 88 22 125 41 136 71 8 22 62 546
57 551 -1 2 -62 -28 -135 -66z m114 14 c-3 -9 -6 -20 -6 -25 0 -5 -63 -40
-139 -79 l-139 -69 -11 -53 c-6 -29 -20 -96 -31 -148 l-20 -95 5 70 c8 109 35
243 54 265 17 21 257 149 280 150 8 0 11 -6 7 -16z"/>
<path d="M19050 10502 c-123 -67 -184 -108 -224 -150 -15 -17 -78 -128 -140
-248 -68 -133 -121 -224 -136 -235 -15 -11 -121 -38 -265 -69 -409 -86 -402
-78 -69 -79 274 -1 297 0 402 24 61 13 122 31 135 40 14 9 41 55 67 112 102
229 162 333 242 420 66 71 81 94 98 149 23 77 25 94 8 94 -7 0 -60 -26 -118
-58z"/>
<path d="M2137 10383 c-67 -71 -216 -223 -332 -339 l-210 -211 -135 -33 c-74
-18 -157 -41 -185 -51 -27 -10 -59 -20 -70 -22 -32 -7 565 -8 721 0 l141 6
-51 41 c-68 56 -116 128 -116 175 0 62 105 228 293 464 42 53 74 97 71 97 -3
0 -60 -57 -127 -127z"/>
<path d="M17923 9973 c9 -2 23 -2 30 0 6 3 -1 5 -18 5 -16 0 -22 -2 -12 -5z"/>
<path d="M17858 9963 c7 -3 16 -2 19 1 4 3 -2 6 -13 5 -11 0 -14 -3 -6 -6z"/>
<path d="M7039 7080 c-106 -18 -177 -82 -209 -190 -22 -72 -85 -443 -96 -561
-14 -158 39 -232 166 -232 65 0 105 18 148 67 34 39 36 38 46 -16 l7 -38 57 0
57 0 43 258 c23 141 42 263 42 270 0 9 -33 12 -129 12 -145 0 -134 6 -146 -80
-4 -25 -9 -53 -11 -62 -4 -14 1 -18 25 -18 37 0 38 -10 16 -114 -17 -79 -36
-106 -77 -106 -53 0 -54 19 -3 320 49 291 59 322 108 328 40 5 57 -30 47 -93
-16 -91 -22 -85 89 -85 l100 0 7 45 c3 25 5 76 2 114 -3 55 -9 75 -30 104 -49
63 -154 95 -259 77z"/>
<path d="M5157 7017 c-4 -29 -10 -67 -13 -85 l-6 -32 76 0 76 0 -5 -27 c-12
-66 -115 -737 -115 -750 0 -10 23 -13 99 -13 86 0 100 2 105 18 2 9 31 187 62
395 l58 377 72 0 72 0 6 33 c3 17 8 56 12 85 l7 52 -250 0 -250 0 -6 -53z"/>
<path d="M6137 7058 c-2 -7 -72 -193 -155 -413 -83 -220 -162 -430 -176 -467
l-26 -68 109 0 109 0 29 88 30 87 71 3 72 3 0 -91 0 -90 100 0 100 0 0 373 c0
206 3 422 7 480 l6 107 -135 0 c-100 0 -137 -3 -141 -12z m90 -410 l-11 -188
-54 0 c-51 0 -53 1 -46 23 9 29 104 328 110 346 11 33 11 -5 1 -181z"/>
<path d="M7705 7038 c-3 -18 -35 -222 -70 -453 -36 -231 -68 -432 -71 -447
l-6 -28 210 0 209 0 6 43 c3 23 9 61 13 85 l7 42 -107 0 c-58 0 -106 2 -106 4
0 2 27 177 60 389 33 212 60 388 60 391 0 3 -45 6 -100 6 l-99 0 -6 -32z"/>
<path d="M8435 7048 c-5 -21 -135 -921 -135 -933 0 -3 45 -5 99 -5 l99 0 6 28
c3 15 33 221 66 457 33 237 63 440 65 453 5 22 4 22 -95 22 -95 0 -100 -1
-105 -22z"/>
<path d="M9015 7048 c-7 -34 -145 -913 -145 -927 0 -7 28 -11 88 -11 l87 0 43
333 c42 321 50 372 57 365 2 -2 16 -159 31 -350 l28 -348 123 0 c68 0 123 4
123 8 0 8 135 871 145 925 l5 27 -90 0 c-50 0 -90 -3 -90 -7 0 -25 -89 -656
-93 -659 -6 -6 -12 60 -38 384 l-22 282 -124 0 c-119 0 -123 -1 -128 -22z"/>
<path d="M9950 7063 c0 -5 -33 -221 -73 -480 l-73 -473 217 0 216 0 7 53 c4
28 9 67 12 85 l6 32 -111 0 c-94 0 -111 2 -111 16 0 8 7 62 16 120 l17 104
112 0 113 0 6 33 c3 17 8 56 12 85 l7 52 -113 0 -113 0 7 43 c4 23 11 70 17
105 l11 62 113 0 113 0 11 63 c21 119 43 107 -204 107 -118 0 -215 -3 -215 -7z"/>
<path d="M11480 7062 c0 -4 -31 -215 -70 -469 -38 -254 -70 -466 -70 -472 0
-7 36 -11 100 -11 95 0 100 1 105 23 2 12 16 102 30 200 14 99 27 183 31 188
6 11 101 12 107 2 3 -5 -8 -93 -24 -198 -16 -104 -29 -196 -29 -202 0 -10 27
-13 100 -13 55 0 100 1 101 3 0 1 33 217 73 480 l72 477 -102 0 -102 0 -11
-67 c-6 -38 -19 -122 -29 -188 l-18 -120 -57 -3 c-42 -2 -57 0 -57 10 0 7 11
84 25 171 14 87 25 167 25 178 0 17 -8 19 -100 19 -55 0 -100 -4 -100 -8z"/>
<path d="M12292 6598 c-40 -260 -72 -476 -72 -480 0 -5 96 -8 214 -8 l214 0 6
33 c3 17 8 56 12 85 l7 52 -113 0 -112 0 5 28 c3 15 11 69 18 120 l13 92 112
0 c126 0 117 -6 129 85 3 28 8 58 11 68 5 15 -5 17 -110 17 l-116 0 6 38 c3
20 11 66 17 102 l12 65 110 3 c67 2 112 7 116 14 4 6 10 36 14 67 3 31 8 64
11 74 5 16 -10 17 -214 17 l-219 0 -71 -472z"/>
<path d="M13126 7044 c-11 -54 -136 -896 -136 -915 0 -17 8 -19 100 -19 55 0
100 4 100 9 0 12 49 328 56 364 5 22 11 27 34 27 26 0 60 -22 60 -38 0 -4 -9
-65 -20 -137 -11 -71 -20 -151 -20 -177 l0 -48 105 0 105 0 -6 43 c-4 25 3
103 16 186 12 79 19 158 16 176 -7 33 -36 67 -71 79 -17 7 -13 10 25 24 62 23
90 80 97 196 7 105 -1 147 -34 187 -45 53 -80 62 -259 67 l-162 4 -6 -28z
m245 -154 c15 -8 19 -21 19 -58 -1 -104 -32 -162 -86 -162 -19 0 -24 5 -24 27
0 24 15 127 26 181 5 24 32 29 65 12z"/>
<path d="M13980 7062 c0 -5 -31 -215 -70 -468 -38 -252 -70 -464 -70 -471 0
-10 48 -13 214 -13 l214 0 11 75 c6 42 11 80 11 85 0 6 -47 10 -111 10 l-112
0 7 38 c3 20 11 74 17 120 l12 82 114 0 c62 0 113 1 113 3 0 1 6 39 14 85 l13
82 -114 0 -114 0 6 45 c4 24 12 70 19 102 l11 58 113 3 c61 1 112 4 112 5 0 1
6 39 14 85 l13 82 -218 0 c-121 0 -219 -4 -219 -8z"/>
<path d="M780 6590 l0 -60 2070 0 2070 0 0 60 0 60 -2070 0 -2070 0 0 -60z"/>
<path d="M14630 6590 l0 -60 1870 0 1870 0 0 60 0 60 -1870 0 -1870 0 0 -60z"/>
</g>
</svg>
